<?xml version="1.0" encoding="UTF-8"?>
<svg id="Layer_1" data-name="Layer 1" xmlns="http://www.w3.org/2000/svg" xmlns:xlink="http://www.w3.org/1999/xlink" viewBox="0 0 149.2 12.03">
  <defs>
    <style>
      .cls-1 {
        fill: #efd18f;
      }

      .cls-2 {
        clip-path: url(#clippath);
      }

      .cls-3 {
        fill: none;
      }
    </style>
    <clipPath id="clippath">
      <rect class="cls-3" x=".2" y=".03" width="149" height="12"/>
    </clipPath>
  </defs>
  <g class="cls-2">
    <g>
      <path class="cls-1" d="m34.61,11.53c-.37.33.14.1.61,0h-.61Z"/>
      <path class="cls-1" d="m39.26,11.5c-.92.3-2.04.03-2.61.43.95.17,2.38,0,2.61-.43Z"/>
      <path class="cls-1" d="m37.87,11.37l-.1.2.78-.33-.68.13Z"/>
      <path class="cls-1" d="m37.26,11.23l.14.07,1.26-.3-1.39.23Z"/>
      <path class="cls-1" d="m42.42,11.47l-.92.1c-.88-.2.54-.4-.03-.53-1.15.07-.37.57-1.83.6.14.23,2.34-.17,2.1.27,1.22.03.03-.23.68-.43Z"/>
      <path class="cls-1" d="m98.3,5.73h.14c-.07-.03-.1-.07-.14,0Z"/>
      <path class="cls-1" d="m113.64,4.47c.2,0,.44.03.64.03-.07-.03-.14-.07-.27-.1l-.37.07Z"/>
      <path class="cls-1" d="m88.77,7.1c-.24,0-.44-.03-.61-.07.1.03.31.07.61.07Z"/>
      <path class="cls-1" d="m111.5,2.03s.07-.07.07-.1l-.17.1h.1Z"/>
      <path class="cls-1" d="m130.78,2.77c.24,0,.48-.03.68-.1-.41,0-.61.03-.68.1Z"/>
      <path class="cls-1" d="m56.67,10.97c.27,0,.48,0,.68-.07-.17-.03-.37-.03-.68.07Z"/>
      <path class="cls-1" d="m65.69,10.4h-.07s.07.07.07,0Z"/>
      <path class="cls-1" d="m57.35,10.9c.48.13.64.6,1.19,0l-.14-.07c.37.1.88-.13,1.29-.2-.03-.03-.1-.1-.17-.13h-.88c-.51-.07-.81.2-1.29.33v.07Z"/>
      <path class="cls-1" d="m94.47,6.53h-.44s.27.03.44,0Z"/>
      <path class="cls-1" d="m37.9,2.5c.37-.07.58.07.92.07.75-.4-1.56.1-.51-.3-.34,0-.61.1-.85.17l.51.3c.64-.17-.44-.1-.1-.23h.03Z"/>
      <path class="cls-1" d="m107.06,1.27h.17s0-.17-.61-.27c-.51.23.27.6-.61.87h.68c-.37-.2,0-.43.37-.6Z"/>
      <path class="cls-1" d="m106.65,1.9l.14.1c.14,0,.24,0,.34.03-.1-.07-.27-.1-.51-.13h.03Z"/>
      <path class="cls-1" d="m49.85,1.87h.41c-.2-.07-.31-.03-.41,0Z"/>
      <path class="cls-1" d="m129.96,7.2s-.34.1-.47.13c.27-.03.41-.1.47-.13Z"/>
      <path class="cls-1" d="m115.54,1.73s.27.03.44.07h.27l-.68-.07h-.03Z"/>
      <path class="cls-1" d="m87.28,4.97c.31-.4-.24.03-.85-.17l-.54.2c.51.07.98,0,1.39,0v-.03Z"/>
      <path class="cls-1" d="m70.72,5.47s-.17,0-.27-.03c.07,0,.14.03.27.03Z"/>
      <path class="cls-1" d="m110.01,2.07h2.14l-.61-.07c-.31.2-1.22-.17-1.53.07Z"/>
      <path class="cls-1" d="m96.37,5.1l.2.23c2.1-.5,4.55.2,6.24-.5,2.58.87,1.7-.73,4.07.03l-.07-.13c7.8.17,16.05.83,23.35.7v.17c6.31.4,12.52.67,18.76,1V1.47c-5.33.37-10.65.77-16.02,1.03-1.09.23-.41.53-1.32.8-.41,0-1.32.1-1.36-.1.78-.17.34-.3.58-.4-1.32.1-3.02,0-4.17.3l.98.2c-.44.13-1.15.1-1.6.13.17-.13-.44-.4-.1-.47-2.41.8-1.93-.17-4,.23-.37.6-2.95,1.2-4.62,1.73l-.92-.1c1.19-.07-.03-.4,1.43-.47-1.26-.07-2.38.23-3.56.23.24.13.2.3-.27.4-.71,0-.81-.3-1.63-.27l.81-.23c-.54-.17-1.02.13-1.53.2-.17-.23-1.42-.2-1.22-.47-1.09.4-1.49.23-2.65.5,1.25.17-.31.33-.14.5l1.39-.17c-1.97,0,.65-.07.47-.47.95.13-1.22.73.31.57-1.83.33-2.24.17-4.11.63,1.12-.13-.2.27.41.37-1.46.1-.37-.1-.85-.33-.78.07-1.09-.13-1.8.2-1.29-.03.17-.3-.48-.43.44-.3,3.56.1,3.16-.73.68-.07,1.46-.43,2.41-.47-.85-.07-2.07-.27-3.09,0v.5c-.81.07-.95.4-1.53.4.31-.17-.27-.33-.88-.27.17.07.44,0,.37.1-1.19.1-1.32.47-2.71.63,1.15.07,1.42.2,2.51.33-.27.37-.75.1-1.39.17.1-.07.24-.07,0-.13l-.68.2c-1.46-.07.14-.5-1.05-.6-.85-.23-1.12.23-1.76.1.03,0,.1.07.14.07h-.31c-.75.13-1.59.13-1.76.43-.1-.1-.68.07-.92.17-.41.13-1.43.5-2.07.13h.03c-.95,0-1.7-.07-1.49-.23h-1.53l.14-.37c-1.39.17-1.22.37-2.17.77-1.02-.13-2.75.13-3.39.3-.1,0-.27,0-.54.03l.58.1c-1.09.07-.95.23-1.66.27.14,0,.17.03-.24,0h-.41s.2-.03.37-.03l-.14-.1c-.88-.3-1.32.3-2.27.23.1,0,.24-.07.34-.07-.54-.07-1.32-.5-1.53-.17-.14,0-.31.03-.48.13h-.37.37c-.24.1-.44.23-.47.17h-1.36c-.27,0-.61.07-.88.13l-.24-.13c-.48.07-.51,0-.44-.07-1.73-.37-2.61.4-4.45.1-.34.27.44.3.51.43-.27.2-1.32.43-1.83.6-.85-.27-3.36-.4-2.99-.9-1.49.07.48.27-.27.47h-.17c.51,0,.95.13,1.26.3.14.23-1.19.4-1.59.37l.27-.37c-1.39.2-1.05.73-1.9,1.13-1.12-.07-.51-.43-.75-.73l-1.15.17v-.27c-.78.13-.92.37-1.97.33.75-.3-1.59-.13-.58-.57-.58-.07-.71.47-1.05.13-.37.3.54.1.81.17.27.4-1.26.27-1.97.43-.07-.2.44-.27-.37-.37-.17.17-.68.33-1.15.17,0,.27-.92.1-1.39.13.54,0,1.29.17.98.43-.41.13-.75.2-1.66.23l.64.1c-.78.43-1.36-.2-2.44,0,.44-.2.75-.2,1.15-.43-.51.17-1.49.43-2.31.6l-.95-.33c-.1.2-1.05.03-1.02.33-1.15-.1.92-.37,1.02-.6-1.46-.1-1.12.53-2.54.2l.44-.27c-.48,0-1.39.2-1.46.1,0,.1.24.03.54,0-.24.57-2.1.5-1.9,1.07h.64c-.98.17-1.66.6-2.41.43-.58-.13.37-.4.71-.57-.92,0-.71.67-1.83.67.58.07.48.27.14.43.64,0,1.97,0,1.73-.2h-.24c.03-.2.41-.27.58-.33.88-.07.41.23.61.33,1.46,0,.07-.57,1.43-.63l.17.1c.64-.2,1.63-.27,1.76-.63.61.33,1.49-.23,2.14-.07.17.77-2.27.1-2.99.57.71.1-.37.4-.64.6l2.17-.47c.17.1.85.43,1.22.13h-.17c.88-.17.61-.47,1.36-.4.14.07-.1.2-.17.27.71,0,.58-.2,1.02-.33.71,0-.34.33.27.4.78-.37,1.29,0,1.97-.07-.34-.43,2.75-.8,1.22-1.07l1.66-.4c.54.2-1.12.7-.61,1.03l-1.32.07c.27.53,2.78-.53,3.7,0,.71,0,.54-.1,1.9.1l-.27-.47c.71.07.95.33.98.4.41-.07.78-.07,1.15-.07-.1.07-.24.17-.48.2.54.23.68.13.88,0,.27-.13.71-.17,1.15-.17l-.37.2c.27-.07.58-.13.61-.23.17,0,.34-.03.51-.07-.14-.07-.44-.33-1.09-.43,1.63.1,2.92-.1,4.34.23-.03.13-.61.37-.44.37.71,0,1.43-.27,1.36-.47.17,0,.27,0,.37-.03.14.1.31.23.64.23.07.03.2.07.44.07.2-.4,1.56-.3,1.83-.5-.31,0-.71,0-1.09.03.54-.3,1.02-.63,1.46-.43-1.02.3,1.15.33-.44.53,1.12.43.54-.4,1.73-.3l.78.13c-.1.3-1.22.23-1.02.33l.51-.07c-.51.23-2.51.23-3.7.63h2.44c3.05-.53,6.92-.4,9.5-1.2h-.1s.07-.07.1-.17l.14.07.51-.23c.61.23,1.7.2,2.65.37-.41-.09-.63-.2-.68-.33.1-.3.17-.43,1.05-.37,0,.2-.51.23.14.37-.34-.07-.07-.23.34-.3.51.1,1.32.07,1.36.27-.24.07-.41,0-.58,0-.24.07.95.13.27.33l.88-.1c.54.13-.34.3-.1.4,1.46-.23,2.21-.73,3.53-.97-.07.1-.03.57-.03.43,1.05.07,2.17-.63,3.33-.73-.17.13-.61.13-.95.2,3.6-.07,6.52-.23,9.91,0l.85-.53.88.27c3.56.07,6.24-.4,9.6-.77,1.05-.1.64.3,1.15.4,2.31-.1,2.82-.67,4.99-.9-.31.17-.78.6.17.57.17-.13.27-.37.88-.33l-.31.17c.54.17,1.05-.07,2.21-.03,2-.13,3.87-.6,5.46-1.2,1.76-.07-.14.5.2.6-1.26-.1-.85.13-1.12.3.65-.17,1.43-.3,1.8,0,.92-.07,1.32-.1,2.21-.37-.44.13-.85,0-.44-.2.75.07,2.65-.17,2.58.23,4.11-.33,8.65-.57,13.06-.83V2.03l-.75-.03c-.78.17.58.1.13.23-1.15.23-.88-.2-1.83,0l.37-.2c-1.36-.1-2.82.23-4.14.37.24-.23-1.05-.27,0-.37-.64,0-1.36-1.2-1.87-.97l.68,1.13s-.95,0-.85.07c-.54-.23-1.22-.53-1.63-.53-.17-.27.81-.17,1.32-.13.1-.47-1.8-.37-.98-.77-1.15,0,.14.23-.54.37l-.98-.13.78.2c-.85.1-1.15.43-2.24.13l-1.19.4c-.1-.37-.85-.1-1.43-.2l.37-.2c-.78,0-1.09-.1-1.6-.23.48-.3.71.1.92-.2l-.85-.13c0,.2-.58.33.07.5-.81.33-1.29.63-3.29.53-.92-.37.98-.27.61-.63-2.1-.2-2.61.83-3.83.73-1.56-.2-1.49.13-3.05.1.51-.23-1.09-.3-1.39-.53l.64-.23c-.47.07-.95-.03-.78-.23.07.33-2.07.23-3.16.37l.17.27c-.85.07-2.04.23-2.95.13-1.36.07-1.05.3-2.1.6-.58-.27-.51-.53-.31-.83.37.13.98.07,1.56.17,1.7-.2,3.05-.77,4.75-.6.75-.63-1.15.07-1.97-.2,0-.03.1-.07.14-.07h-.2c.61-.07,1.59-.17,1.76-.5-1.02.03-.75.63-2,.33-.95.17-1.7-.37-2.27-.43-.65.23-.68.77-2.21.63l.68-.37c-1.73-.03-.81.53-2.44.5.58.03-.54.37.51.37-.54.2-1.7.23-2.58.1-.24.07-.03.13-.1.27.95.27,1.53-.23,2.31.13l.68-.4c.88.17.98.5.44.63.24,0,.48-.07.68,0,.14.6-1.09-.23-1.39.27h.64c.27.37-1.49.3-2.31.27-.92-.2-1.76-.27-1.83-.57l1.26-.1c-.65-.23-1.6.13-2.31.1-.03-.03-.1-.07-.2-.1.03,0,.07.07.07.07-.17,0-.31-.07-.41-.13-.65,0-1.56.13-2.17.03l.07.27.07-.13c.58,0,1.36.17.92.37-1.32.17-1.56-.33-1.9-.53.31-.4,1.29,0,1.93-.1-.41-.4-1.32-.07-2.68-.33.54-.4,1.56,0,1.87-.37-1.08-.07-1.39.2-2.54.1.13-.2,1.25-.2,1.19-.47l-.75-.13c1.83,0-.31-.53,1.09-.63-.68-.17-.95.33-1.9.07.27.17,1.02.53.1.67l-1.02-.13c-.44-.2,1.09-.47.41-.63l-1.09.13s.54.2.24.37c-.61-.13-1.02.5-1.76.67-.58,0-1.05-.03-1.26-.17-1.46.37-3.33.37-4.68.73.92-.27-.03-.43-.61-.6,1.05-.07,1.05-.47.98-.7-.64.03-1.05.47-.75.6-1.09-.13-.75.3-1.7,0-.61-.13.31-.4.1-.53-1.15,0-.31.47-1.59.4.07-.07.17-.07.07-.13-.68-.07-1.43.13-1.56.33-.75-.5-2.07.1-1.93-.43-1.66.17.24.27-.07.43-.68.23-1.93.07-2.31,0,.41,0,.78-.17,1.19-.1l-.34-.33c-2.07-.2-1.29.8-3.29.57,1.02-.2.34-.27.85-.53-.31.1-1.87.03-.92.27-.75,0-1.26-.07-1.8-.1-.64.13-1.39.27-1.76.5-1.05,0-1.83-.23-2.34-.37-2.21.3-4.24,0-6.55.33h.17c-1.8,0,.81.43-1.05.5.24-.43-1.12-.23-1.73-.43-2.31-.13-3.94.5-6.07.3,0-.1.14-.2.54-.23-1.63-.07-2.92.1-4.38.13l.07-.07c-2.34-.23-4.45.33-6.85.57.2-.07.24-.23.37-.3-1.22,0-3.16,0-4,.47-1.46-.3-.95.2-2.82-.07-.1-.07.17-.07.31-.1-.92-.07-1.56,0-2.48,0-2,.43-2.48.97-4.85,1-.17-.57,1.43-.27,1.46-.73-.48.13-.85.3-1.53.2.37-.27.07-.13.34-.37-.51-.1-1.97.77-1.97.7,0,.1.17.17.61.1-.51.4-2.31.23-3.46.47.37,0,1.56,0,1.12.3-1.56,0-2,.6-3.05.9-1.43-.13.98-.57.71-.93-.24-.13-.85-.4-.27-.6-1.29,0-2.17.43-3.29.63v-.1c-1.56.2-3.19.83-4.55.73l.71.07c-.24.1-1.05.13-1.46.4,0-.2-1.02-.27-.61-.47-.64.67-3.56.7-4.28,1.37-.44-.1-.14-.4,0-.53,1.02-.07,1.36.03,1.87-.27-.81.1-1.46,0-1.32-.13-.78.47-2.75.83-3.12,1.23-.61-.13-1.22-.17-1.05-.5-2.51.47,1.36.83-1.49,1.13-1.36-.17,1.22-.53-.58-.47l.34-.1c-1.39-.67-.85.67-2.34.8-.24-.43.98-.43-.07-.63-1.32.27-1.87,1-3.22,1l.2-.2c-.88.1-2.54.27-3.39.37-.07-.07.07-.1.24-.13-1.59,0-.64.3-1.97.13l-.34.27c.68.07,1.97.13,2.75-.2-.78.33,1.36.4.98.83l.14-.17c2.24.4,5.02.13,7.77.1,1.66-.63,2.95-.13,4.78-.63.24-.53.34-.13,1.9-.4-.85.17-.07.4.48.43.31-.17.68-.23,1.05-.33.34.13,2.38.37,3.09-.03.98.07-.2.2-.41.3.41.23.78-.27,1.12-.13,0,0,0,.07-.1.1,1.49-.17,2.38-.1,3.94-.2.07-.53,1.49-.33,2.17-.57-.2.17.88.13,1.32.17l.78-.43c.78-.4,1.15.13,2.21-.13l-.27-.07c.75-.2,2.82-.07,3.6.13,7.06-1.5,11.1-.23,18.6-.9.48-.17-.37-.23,0-.5.75-.1.95-.07,1.63-.13-.61-.1-.51.07-.44-.1l-1.05.2s.07-.07-.03-.13c-.37.07-.78.2-1.22.2.64-.17.81-.57,1.73-.47-.07.07-.17.07-.41.13.75,0,.78-.2,1.36-.1.68.07.51-.07.61.1l2.14.1c1.05-.5,2.38-.13,2.71-.1-.2.33-1.39.17-1.9.53l.78.2v-.27h1.12l-.07.07s.24-.23.54-.13c.03.03.17.1.03.13l.78-.2c-.44.3.68.07.58.37,2.54.07,3.22-.57,5.46-.2-.37-.13.68-.53,1.39-.5.41.07.51.13.27.27l.88-.2c1.15.47,2.24.1,3.9.23l-.07.13c.61-.17,1.26-.33,2.21-.3l-.17.3c1.12.17.85-.6,2.1-.47,0-.3-.81-.43-.92-.73.31.3,1.63.3,1.32.1,1.26-.17.85,0,.98.07l.71-.2c.88,0,.27.4,0,.57.81-.37,1.7-.13,2.61-.1l-.37.13h1.22c.78-.2,1.9-.23,2.92-.13l-.71.4c.71.2.37-.13.54-.2,1.12-.2,1.39.07,1.97.27,1.8-.47,3.63.63,5.19,0l.14.17Zm-20.19,2.6h.17c-.37.13-.58.23-.17,0Zm10.01-.53c-1.19.23-.81,0-.92-.1,1.19.03,1.83-.13,2.88-.07-.17-.07-.2-.17-.27-.23.41,0,.85.07.98.23-.47.43-3.22-.07-2.71.13l.03.03Zm-16.42,2.67s.24.13.41.13c-.1-.1-.24-.17-.41-.13Zm11.88-.27c.27.13.92.07,1.36,0h-1.36Zm60.2-7c.37-.03,1.05-.17.44-.33-.31.13-.85-.17-1.12.07h-.07c.34.17.65.3.75.3v-.03Zm-35.26.33s.34-.33.17-.47h.1s-.17-.1-.1-.13c-.27-.03-.58-.07-.78,0-.1.53-.71.63.61.63v-.03Z"/>
      <path class="cls-1" d="m106.01,2.27s.31.1.71.17c-.07-.07-.27-.13-.71-.17Z"/>
      <path class="cls-1" d="m44.32,10.03l.34-.07-.71-.1c-1.15.27-1.19.5-1.46.77,1.02-.33,1.66-.23,3.02-.4l-1.19-.2Z"/>
      <path class="cls-1" d="m45,11.8s.44.23.61.23l.17-.17-.75-.07h-.03Z"/>
      <path class="cls-1" d="m58.84,11.7l-1.12-.07c-.34.17.95.33,1.12.07Z"/>
      <path class="cls-1" d="m53.75,9.17l-.58.2c.54.1,1.22.03,1.32-.17-.68.17-.17-.1-.75-.07v.03Z"/>
      <path class="cls-1" d="m61.79,11.53c.34-.33,1.12.07,1.32-.23-.27.1-1.29-.07-1.32.23Z"/>
      <path class="cls-1" d="m60.81,8.53c-.37-.27-.92,0-1.63,0,.58-.03,1.43.23,1.63,0Z"/>
      <path class="cls-1" d="m67.66,10.23c-.03.23-.51.23-1.02.23.17-.07.27-.2.51-.23-.85.23-.92.2-1.59.37.71.1,1.76.17,1.66.43.51-.23,1.12-.6.48-.77l-.03-.03Z"/>
      <path class="cls-1" d="m62.5,8.37c-.58-.07-.95-.23-1.66-.17.14.17.37.37,1.19.27l-.27.3c.78.13-.31-.33.71-.4h.03Z"/>
      <path class="cls-1" d="m70.89,10.67l-.37-.1c-.81.27-1.87.23-2.27.6.98-.07,2.21-.3,2.65-.5Z"/>
      <path class="cls-1" d="m65.39,8.7l.1-.37c-.81,0,.07.13-.2.23-.24-.03-.58-.07-.75,0,.92-.1.07.3.88.13h-.03Z"/>
      <path class="cls-1" d="m68.04,8.1l1.02-.23-.85-.37c-1.22.23-.03.23-.2.6h.03Z"/>
      <path class="cls-1" d="m69.33,8.27l.14.07,1.53-.67c-.92.3-.98.27-1.66.6Z"/>
      <path class="cls-1" d="m88.43,9.5c.17-.17-.78-.3-.37-.17-.17.13,1.05.27.37.17Z"/>
      <path class="cls-1" d="m84.49,6.73c.44.1,1.9-.23,2.51-.37-.75.13-2.65.17-2.51.37Z"/>
      <path class="cls-1" d="m87.28,6.3s-.14.03-.27.07c.1,0,.2-.03.27-.07Z"/>
      <path class="cls-1" d="m114.08,3.77s.14,0,.2-.07c-.07,0-.14.03-.2.07Z"/>
      <path class="cls-1" d="m113.44,3.9c-.44,0-1.29.13-1.43.3.68-.13,1.29-.2,2.07-.43-.31.03-.68-.07-.64.13Z"/>
      <path class="cls-1" d="m119.61,3.57c-.31.13-.75.1-.64.23.17.07.85-.17.64-.23Z"/>
      <path class="cls-1" d="m136.92,1.03c-.58-.1-.95-.07-.78.17.68,0,.3-.13.78-.17Z"/>
      <path class="cls-1" d="m135.36,1.23l-.1-.13-.37-.17.48.3Z"/>
      <path class="cls-1" d="m131.25.73s.14-.07.24-.1c-.24,0-.44.03-.24.1Z"/>
      <path class="cls-1" d="m131.9.7l.07-.13s-.2,0-.3.03c.1,0,.24,0,.27.1h-.03Z"/>
      <path class="cls-1" d="m130.03.63l.78.4c.82-.13-.92-.23-.1-.57l-.68.2v-.03Z"/>
      <path class="cls-1" d="m127.28.63c-.75-.13-1.83.4-2.24-.03-2.14.17.48.73-1.97.8,2.27.3,1.19-.77,3.22-.47-.98-.3.68-.2.98-.27v-.03Z"/>
      <path class="cls-1" d="m127.62,1.37c.14-.2-.82-.27-1.12-.13.27,0,.75.33,1.12.13Z"/>
      <path class="cls-1" d="m123.14.7l-.64-.17-.17.13.81.03Z"/>
      <path class="cls-1" d="m120.7.53l.64-.23c-.2.1-1.15.07-.64.23Z"/>
      <path class="cls-1" d="m117.27.17c-.58-.1-1.15.47.1.37h-.27s-.61-.33.17-.37Z"/>
      <path class="cls-1" d="m109.33.93c.41,0,.88-.07.81-.17l-1.12.1.31.07Z"/>
      <path class="cls-1" d="m109.5,2.3c.37.33,1.05,0,1.8.1-.85-.07-.75-.13-1.8-.1Z"/>
      <path class="cls-1" d="m108.08.43c.31-.13.78-.03,1.05,0-.14-.2-.92-.17-1.05,0Z"/>
      <path class="cls-1" d="m106.28.53c-.37-.13.07-.2-.2-.3-.78-.17-1.6-.13-2.07.03.2.13.47.53.17.73,1.25-.1,1.9-.73,2.51-.23l1.05-.6c-1.02-.1-.78.4-1.46.37Z"/>
      <path class="cls-1" d="m108.79,1.7l-.68-.2c.14.2-.37.23-.75.3.17.43,1.02-.07,1.39-.07l.03-.03Z"/>
      <path class="cls-1" d="m99.32.77l-1.43.13h.48l.95-.13Z"/>
      <path class="cls-1" d="m98.41.63l-.03-.13-1.09.23,1.12-.1Z"/>
      <path class="cls-1" d="m96.91.5h.17l.85-.1-1.02.1Z"/>
      <path class="cls-1" d="m93.96.43l.27.2c.37-.03,1.09.17,1.02-.1-.31.1-1.05.07-1.29-.1Z"/>
      <path class="cls-1" d="m84.22,5.23c.24-.13.1-.23-.07-.33l-.41.33s.37-.07.44,0h.03Z"/>
      <path class="cls-1" d="m82.49,4.77l-1.05.4c1.22,0,1.36-.27,2.44-.33-.44-.1-1.09.17-1.63.1l.24-.13v-.03Z"/>
      <path class="cls-1" d="m61.45,5.23c.07-.23-.14-.2.61-.37-1.05.2-2,.2-3.22.27.2.13-.68.43-.2.33l1.36-.2-.2.17c.98.13.61-.3,1.63-.2h.03Z"/>
      <path class="cls-1" d="m6.31,7.2s-.07-.2-.24-.3c-.81.23.41.23.24.3Z"/>
    </g>
  </g>
</svg>