<svg width="23" height="25" viewBox="0 0 23 25" fill="none" xmlns="http://www.w3.org/2000/svg">
<path d="M15.9431 6.08984V18.9104C19.688 18.9104 22.7274 16.0386 22.7274 12.5001C22.7274 8.96164 19.688 6.08984 15.9431 6.08984Z" fill="#75AFFF"/>
<path d="M3.87517 5.02179C3.78064 4.93248 3.70566 4.82645 3.6545 4.70975C3.60335 4.59305 3.57701 4.46798 3.57701 4.34167C3.57701 4.21536 3.60335 4.09028 3.6545 3.97358C3.70566 3.85689 3.78064 3.75085 3.87517 3.66154C3.9697 3.57222 4.08192 3.50137 4.20542 3.45304C4.32893 3.4047 4.4613 3.37982 4.59498 3.37982C4.72866 3.37982 4.86103 3.4047 4.98454 3.45304C5.10804 3.50137 5.22026 3.57222 5.31479 3.66154L6.27408 4.56795C6.45955 4.74921 6.56224 4.99206 6.56005 5.24417C6.55786 5.49628 6.45096 5.7375 6.26237 5.91586C6.07378 6.09422 5.81859 6.19546 5.55177 6.19777C5.28494 6.20008 5.02784 6.10327 4.83582 5.92821L3.87517 5.02179ZM2.37449 11.5385H1.01764C0.747744 11.5385 0.488904 11.6398 0.298059 11.8201C0.107215 12.0004 0 12.245 0 12.5C0 12.755 0.107215 12.9996 0.298059 13.1799C0.488904 13.3602 0.747744 13.4615 1.01764 13.4615H2.37449C2.64439 13.4615 2.90323 13.3602 3.09407 13.1799C3.28492 12.9996 3.39213 12.755 3.39213 12.5C3.39213 12.245 3.28492 12.0004 3.09407 11.8201C2.90323 11.6398 2.64439 11.5385 2.37449 11.5385ZM13.2293 3.20513C13.4992 3.20513 13.758 3.10382 13.9489 2.9235C14.1397 2.74318 14.2469 2.49861 14.2469 2.24359V0.961538C14.2469 0.706523 14.1397 0.461951 13.9489 0.281628C13.758 0.101305 13.4992 0 13.2293 0C12.9594 0 12.7006 0.101305 12.5097 0.281628C12.3189 0.461951 12.2117 0.706523 12.2117 0.961538V2.24359C12.2117 2.77436 12.6676 3.20513 13.2293 3.20513ZM4.83446 19.0718L3.87517 19.9782C3.68971 20.1595 3.58701 20.4023 3.5892 20.6544C3.59139 20.9065 3.6983 21.1478 3.88689 21.3261C4.07548 21.5045 4.33067 21.6057 4.59749 21.608C4.86431 21.6103 5.12142 21.5135 5.31343 21.3385L6.27273 20.4321C6.36725 20.3427 6.44224 20.2367 6.49339 20.12C6.54455 20.0033 6.57088 19.8782 6.57088 19.7519C6.57088 19.6256 6.54455 19.5005 6.49339 19.3838C6.44224 19.2671 6.36725 19.1611 6.27273 19.0718C6.1782 18.9825 6.06598 18.9116 5.94248 18.8633C5.81897 18.815 5.6866 18.7901 5.55292 18.7901C5.41924 18.7901 5.28686 18.815 5.16336 18.8633C5.03985 18.9116 4.92763 18.9825 4.83311 19.0718H4.83446ZM13.2293 21.7949C12.9594 21.7949 12.7006 21.8962 12.5097 22.0765C12.3189 22.2568 12.2117 22.5014 12.2117 22.7564V24.0385C12.2117 24.2935 12.3189 24.5381 12.5097 24.7184C12.7006 24.8987 12.9594 25 13.2293 25C13.4992 25 13.758 24.8987 13.9489 24.7184C14.1397 24.5381 14.2469 24.2935 14.2469 24.0385V22.7564C14.2469 22.5014 14.1397 22.2568 13.9489 22.0765C13.758 21.8962 13.4992 21.7949 13.2293 21.7949ZM21.0312 12.5C21.0312 16.5641 17.5305 19.8718 13.2293 19.8718C8.92809 19.8718 5.42741 16.5641 5.42741 12.5C5.42741 8.4359 8.92809 5.12821 13.2293 5.12821C17.5305 5.12821 21.0312 8.4359 21.0312 12.5ZM12.2117 17.8513V7.14872C9.51696 7.60513 7.46269 9.82564 7.46269 12.5C7.46269 15.1744 9.51696 17.3949 12.2117 17.8513ZM18.9959 12.5C18.994 11.2221 18.5177 9.98526 17.6499 9.00506C16.7821 8.02486 15.5778 7.36339 14.2469 7.1359V17.8628C15.578 17.6356 16.7824 16.9742 17.6502 15.9939C18.518 15.0137 18.9943 13.7767 18.9959 12.4987V12.5Z" fill="#112D55"/>
</svg>
